<svg xmlns="http://www.w3.org/2000/svg" width="682" height="875" viewBox="0 0 682 875">
    <g fill="none" fill-rule="evenodd">
        <g fill-rule="nonzero" stroke="#000" stroke-width="5">
            <g fill="#D53F1E">
                <path d="M560.272 574.478c-10.36 11.768-21.99 21.97-34.553 30.457a175.615 175.615 0 0 1-16.263 9.754l.036-.002c13.948 0 25.256 12.222 25.256 27.298 0 15.076-11.308 27.297-25.256 27.297-13.95 0-25.256-12.221-25.256-27.297 0-7.418 2.747-14.134 7.189-19.054a168.776 168.776 0 0 1-17.824 5.811c-15.885 4.216-29.67 5.557-44.284 5.557C425.149 685.737 462.654 729 509.493 729 553.955 729 590 690.042 590 641.986c-.002-27.244-11.593-51.552-29.728-67.508zM238.67 634.227H182.72a29.358 29.358 0 0 1 1.032 7.693c0 15.087-11.307 27.318-25.254 27.318-13.947 0-25.254-12.23-25.254-27.318 0-2.674.37-5.252 1.033-7.693H78.33a94.94 94.94 0 0 0-.33 7.693c0 48.092 36.042 87.08 80.5 87.08s80.5-38.988 80.5-87.08a95.982 95.982 0 0 0-.33-7.693zM567.139 473.239c-2.812-15.607-12.276-28.866-25.535-35.779-37.372-19.48-67.197-54.057-82.09-101.27 6.61 6.804 14.836 11.794 24.001 14.209 6.438 1.696 12.64-3.582 12.64-10.727v-90.03c0-7.156-6.228-12.417-12.64-10.726a50.477 50.477 0 0 0-12.38 5.113c-14.456 8.349-24.906 23.711-27.482 41.874l-6.478-20.537c-2.428-7.667-8.948-13.26-16.679-13.81a18.84 18.84 0 0 0-1.462-.672c-5.31-2.109-64.674 0-61.773 20.41 2.901 20.412 34.943 13.872 43.432 17.24 2.855 116.008 2.788 108.134 2.486 114.656-2.653 57.347-36.16 105.505-82.65 126.023v-9.446c0-34.905-17.565-65.36-43.656-81.68-48.52-16.526-80.53-16.44-122.272-12.354-73.922 4.828-133.799 65.866-143.44 144.062-1.445 11.725 6.999 22.196 18.02 22.196H431.182c39.135 0 76.529-17.872 102.821-49.177l21.891-26.066c9.89-11.778 14.059-27.903 11.245-43.51z"/>
            </g>
            <path fill="#D6D4C2" d="M363.216 259.325c-47.194 23.018-112.912-28.626-144.19-78.793-34.932 11.512-67.694 3.326-79.835-21.567-1.767-3.623-2.903-7.38-3.607-11.2-5.144 7.674-8.114 16.88-8.472 26.577-9.433-1.777-19.27-.721-28.267 3.667-20.933 10.21-30.428 35.018-23.888 58.635-29.514 19.33-41.533 58.028-29.565 94.457-19.281 13.559-25.849 40.983-14.204 64.858 12.784 26.213 42.53 38.021 66.441 26.36.692-.338 1.25-.84 1.917-1.21 1.01 5.088 2.455 10.173 4.856 15.096 13.727 28.144 45.664 40.825 71.335 28.305 12.023-5.864 20.358-16.29 24.607-28.53 14.538 11.201 33.6 14.48 50.028 6.468 15.356-7.49 24.453-22.848 25.695-39.805 16.07 8.654 34.995 10.205 51.661 2.076 26.124-12.741 37.298-44.297 27.782-73.65 3.44-1.016 6.863-2.032 10.164-3.642 35.287-17.21 48.573-62.529 29.7-101.226-.428-.876-.97-1.64-1.43-2.492-6.34 15.835-16.295 28.576-30.728 35.616z"/>
            <path fill="#D6D4C2" d="M338.425 28.332a91.441 91.441 0 0 0-16.288 10.17c.158-5.019-.877-10.177-3.25-15.04C311.299 7.901 292.9 1.26 277.794 8.626a29.622 29.622 0 0 0-6.527 4.335c-7.925-9.678-21.753-13.047-33.638-7.25-11.598 5.656-17.456 18.172-15.186 30.124a29.632 29.632 0 0 0-3.077 1.288c-15.106 7.368-21.2 25.956-13.61 41.518a31.954 31.954 0 0 0 10.113 12.002c-6.322 1.46-12.883 3.749-19.41 6.933-26.68 13.012-42.401 35.663-35.121 50.589 7.284 14.934 34.81 16.483 61.487 3.472 2.553-1.245 4.895-2.646 7.232-4.052 1.001 2.472 1.721 4.97 2.913 7.413 21.63 44.348 83.713 98.784 119.12 81.515 35.403-17.267 30.728-99.704 9.098-144.05-1.192-2.445-2.717-4.55-4.057-6.857 2.55-.976 5.101-1.963 7.66-3.211 26.68-13.012 42.405-35.656 35.12-50.59-7.278-14.928-34.807-16.484-61.485-3.473zm-59.62 117.986c-4.765 2.324-10.56.234-12.954-4.674-2.394-4.91-.474-10.764 4.29-13.088 4.766-2.324 10.56-.233 12.955 4.677 2.394 4.908.474 10.761-4.291 13.085zm47.318-23.078c-4.759 2.32-10.552.23-12.946-4.679-2.394-4.909-.476-10.763 4.282-13.083 4.772-2.328 10.567-.237 12.962 4.673 2.393 4.909.472 10.762-4.298 13.089z"/>
            <g fill="#716A63">
                <path d="M288.278 322.643l116.617 23.249c8.702 1.69 17.22-1.945 19.91-8.946 3.012-7.811-2.407-16.862-12.1-20.203l-125.748-43.355c7.442 11.256 18.13 34.988 1.321 49.255zM342.8 393.406c-4.718 3.993-10.064 7.365-15.994 9.882-12.488 5.301-25.558 6.26-37.413 3.561l38.528 22.595 9.414 57.646c1.543 9.405 9.867 16.207 18.597 15.187 8.748-1.019 14.578-9.468 13.042-18.864l-10.758-65.832-.576-3.528-5.246-7.3-9.594-13.347z"/>
            </g>
        </g>
        <path stroke="#000" stroke-width="5" d="M512.38 269.804l49.72-43.036M517.314 291.92l60.97-6.313M517.358 318.413l57.833 22.717"/>
        <path stroke="#FFF" d="M1.319 783.54V875M444.046 196.012H682"/>
        <text fill="#D53F1E" font-family="GillSans-Bold, Gill Sans" font-size="110" font-weight="bold" transform="translate(-83 -54)">
            <tspan x="85.327" y="871">LambCycle</tspan>
        </text>
    </g>
</svg>
